<?xml version='1.0' encoding='iso-8859-1'?>
<svg version="1.1" xmlns="http://www.w3.org/2000/svg" viewBox="0 0 463 463" xmlns:xlink="http://www.w3.org/1999/xlink" enable-background="new 0 0 463 463">
  <g>
    <path d="M95.5,48C42.841,48,0,90.841,0,143.5c0,44.552,30.667,82.073,72,92.571V439.5c0,12.958,10.542,23.5,23.5,23.5   s23.5-10.542,23.5-23.5V236.071c41.333-10.498,72-48.019,72-92.571C191,90.841,148.159,48,95.5,48z M104,439.5   c0,4.687-3.813,8.5-8.5,8.5s-8.5-3.813-8.5-8.5V238.617c2.801,0.248,5.635,0.383,8.5,0.383s5.699-0.134,8.5-0.383V439.5z M95.5,224   C51.112,224,15,187.888,15,143.5S51.112,63,95.5,63S176,99.112,176,143.5S139.888,224,95.5,224z"/>
    <path d="m113.632,82.628c-5.863-1.744-11.964-2.628-18.132-2.628-4.142,0-7.5,3.358-7.5,7.5s3.358,7.5 7.5,7.5c4.719,0 9.381,0.675 13.855,2.006 0.713,0.212 1.433,0.313 2.141,0.313 3.233,0 6.217-2.107 7.186-5.364 1.181-3.97-1.08-8.146-5.05-9.327z"/>
    <path d="m130.27,98.967c-2.959,2.898-3.01,7.646-0.112,10.606 8.926,9.116 13.842,21.165 13.842,33.927 0,4.723-0.676,9.388-2.008,13.864-1.182,3.97 1.078,8.146 5.048,9.328 0.714,0.213 1.435,0.314 2.143,0.314 3.232,0 6.216-2.106 7.185-5.362 1.747-5.866 2.632-11.971 2.632-18.144 0-16.709-6.437-32.485-18.124-44.421-2.898-2.96-7.646-3.01-10.606-0.112z"/>
    <path d="M375.5,0C327.252,0,288,39.252,288,87.5s39.252,87.5,87.5,87.5S463,135.748,463,87.5S423.748,0,375.5,0z M375.5,160   c-39.977,0-72.5-32.523-72.5-72.5S335.523,15,375.5,15S448,47.523,448,87.5S415.477,160,375.5,160z"/>
    <path d="m263.5,160c-35.014,0-63.5,28.486-63.5,63.5s28.486,63.5 63.5,63.5 63.5-28.486 63.5-63.5-28.486-63.5-63.5-63.5zm0,112c-26.743,0-48.5-21.757-48.5-48.5s21.757-48.5 48.5-48.5 48.5,21.757 48.5,48.5-21.757,48.5-48.5,48.5z"/>
    <path d="m394.023,35.168c-5.94-2.102-12.172-3.168-18.523-3.168-4.142,0-7.5,3.358-7.5,7.5s3.358,7.5 7.5,7.5c4.642,0 9.189,0.777 13.518,2.309 0.828,0.293 1.672,0.432 2.502,0.432 3.088,0 5.981-1.922 7.07-5 1.383-3.905-0.662-8.19-4.567-9.573z"/>
    <path d="m421.75,56.812c-2.292-3.448-6.947-4.387-10.398-2.094-3.449,2.293-4.387,6.948-2.094,10.398 4.41,6.635 6.742,14.376 6.742,22.384 0,8.009-2.332,15.75-6.743,22.385-2.293,3.449-1.355,8.104 2.094,10.398 1.277,0.849 2.719,1.255 4.145,1.255 2.427,0 4.809-1.176 6.253-3.349 6.052-9.104 9.25-19.716 9.25-30.689 0.001-10.972-3.198-21.583-9.249-30.688z"/>
    <path d="m263.5,192c-4.142,0-7.5,3.358-7.5,7.5s3.358,7.5 7.5,7.5c9.098,0 16.5,7.402 16.5,16.5 0,4.142 3.358,7.5 7.5,7.5s7.5-3.358 7.5-7.5c0-17.369-14.131-31.5-31.5-31.5z"/>
    <path d="m231.5,103c12.958,0 23.5-10.542 23.5-23.5s-10.542-23.5-23.5-23.5-23.5,10.542-23.5,23.5 10.542,23.5 23.5,23.5zm0-32c4.687,0 8.5,3.813 8.5,8.5s-3.813,8.5-8.5,8.5-8.5-3.813-8.5-8.5 3.813-8.5 8.5-8.5z"/>
    <path d="m383.5,208c-12.958,0-23.5,10.542-23.5,23.5s10.542,23.5 23.5,23.5 23.5-10.542 23.5-23.5-10.542-23.5-23.5-23.5zm0,32c-4.687,0-8.5-3.813-8.5-8.5s3.813-8.5 8.5-8.5 8.5,3.813 8.5,8.5-3.813,8.5-8.5,8.5z"/>
  </g>
</svg>
