<?xml version="1.0" encoding="iso-8859-1"?>
<!-- Generator: Adobe Illustrator 19.0.0, SVG Export Plug-In . SVG Version: 6.00 Build 0)  -->
<svg version="1.1" id="Layer_1" xmlns="http://www.w3.org/2000/svg" xmlns:xlink="http://www.w3.org/1999/xlink" x="0px" y="0px"
	 viewBox="0 0 512 512" style="enable-background:new 0 0 512 512;" xml:space="preserve">
<path style="fill:#424242;" d="M512,179.421L409.825,127.92l-58.095,58.095l0.001,0.001c-3.388-4.564-7.147-8.939-11.286-13.078
	l-1.383-1.383c-4.14-4.14-8.514-7.898-13.078-11.286c0,0,0.001,0,0.001,0.001l58.095-58.095L332.579,0.001l-83.072,83.072
	l28.344,56.233c0.001,0,0.002,0.001,0.004,0.001c-36.575-6.786-75.762,3.958-104.053,32.249L34.226,311.13
	c-45.635,45.635-45.635,119.625,0,165.26l1.383,1.383c45.635,45.635,119.625,45.635,165.26,0l139.575-139.575
	c28.29-28.29,39.036-67.476,32.25-104.049l56.233,28.344L512,179.421z M290.554,142.406c-0.014-0.004-0.026-0.008-0.04-0.013
	C290.527,142.398,290.54,142.402,290.554,142.406z M317.652,154.626c-0.057-0.036-0.116-0.07-0.173-0.106
	C317.536,154.556,317.593,154.59,317.652,154.626z M314.87,152.967c-0.113-0.065-0.226-0.13-0.339-0.194
	C314.645,152.838,314.758,152.903,314.87,152.967z M311.985,151.354c-0.102-0.055-0.205-0.112-0.307-0.166
	C311.78,151.242,311.882,151.299,311.985,151.354z M308.905,149.746c-0.022-0.011-0.044-0.023-0.066-0.033
	C308.86,149.723,308.883,149.735,308.905,149.746z M296.821,144.509c-0.065-0.024-0.13-0.047-0.193-0.07
	C296.691,144.462,296.756,144.485,296.821,144.509z M293.766,143.435c-0.074-0.025-0.148-0.05-0.224-0.075
	C293.617,143.385,293.691,143.41,293.766,143.435z M369.595,221.45c0.004,0.011,0.007,0.024,0.011,0.036
	C369.603,221.474,369.6,221.461,369.595,221.45z M357.373,194.347c0.038,0.061,0.073,0.121,0.111,0.182
	C357.446,194.468,357.409,194.406,357.373,194.347z M359.032,197.129c0.066,0.113,0.13,0.226,0.194,0.34
	C359.163,197.356,359.098,197.243,359.032,197.129z M360.644,200.011c0.056,0.106,0.114,0.21,0.17,0.314
	C360.758,200.221,360.701,200.116,360.644,200.011z M362.254,203.095c0.011,0.022,0.023,0.044,0.033,0.067
	C362.277,203.139,362.266,203.117,362.254,203.095z M367.491,215.182c0.023,0.063,0.046,0.126,0.069,0.189
	C367.537,215.307,367.514,215.245,367.491,215.182z M368.565,218.237c0.025,0.073,0.049,0.146,0.074,0.219
	C368.615,218.383,368.59,218.31,368.565,218.237z"/>
<path style="fill:#707070;" d="M339.752,172.247l-0.692-0.692c-45.635-45.635-119.625-45.635-165.26,0L34.226,311.13
	c-45.635,45.635-45.635,119.625,0,165.26l0.692,0.692L339.752,172.247z"/>
<path style="fill:#048F46;" d="M340.445,338.198c5.229-5.229,9.851-10.834,13.882-16.722L190.523,157.673
	c-5.888,4.031-11.492,8.653-16.722,13.882L34.226,311.13c-5.228,5.228-9.851,10.834-13.882,16.722l163.803,163.803
	c5.888-4.031,11.492-8.652,16.722-13.882L340.445,338.198z"/>
<g>
	<path style="fill:#707070;" d="M460.912,153.672l-51.087-25.75l-58.095,58.095c10.81,14.559,17.797,31.061,20.965,48.133
		l5.146,2.593L460.912,153.672z"/>
	<polygon style="fill:#707070;" points="358.329,51.088 332.579,0.001 249.507,83.072 275.257,134.16 	"/>
</g>
<path style="fill:#3DDB86;" d="M272.424,239.575l-81.902-81.902c-5.888,4.031-11.492,8.653-16.722,13.882L34.226,311.13
	c-5.228,5.228-9.851,10.834-13.882,16.722l81.902,81.902L272.424,239.575z"/>
<polygon style="fill:#FFAC00;" points="145.627,373.728 153.163,329.787 121.239,298.669 165.358,292.257 185.089,252.278 
	204.82,292.257 248.938,298.669 217.014,329.787 224.55,373.728 185.089,352.982 "/>
<polygon style="fill:#FFD68B;" points="217.85,294.151 204.82,292.257 185.089,252.278 165.358,292.257 121.239,298.669 
	153.163,329.787 147.15,364.85 "/>
<g>
</g>
<g>
</g>
<g>
</g>
<g>
</g>
<g>
</g>
<g>
</g>
<g>
</g>
<g>
</g>
<g>
</g>
<g>
</g>
<g>
</g>
<g>
</g>
<g>
</g>
<g>
</g>
<g>
</g>
</svg>
